<svg width="370" height="62" viewBox="0 0 370 62" fill="none" xmlns="http://www.w3.org/2000/svg">
<path fill-rule="evenodd" clip-rule="evenodd" d="M321.448 24.0789C325.724 23.8477 329.378 23.1539 332.451 21.9545C337.756 19.8843 341.332 16.3079 343.402 11.0035C344.602 7.9301 345.295 4.27665 345.527 0C345.758 4.27666 346.452 7.9301 347.651 11.0035C349.721 16.3079 353.298 19.8843 358.602 21.9545C361.675 23.1539 365.329 23.8477 369.606 24.0789C365.329 24.3102 361.675 25.004 358.602 26.2034C353.298 28.2736 349.721 31.85 347.651 37.1544C346.452 40.2278 345.758 43.8812 345.527 48.1579C345.295 43.8812 344.602 40.2278 343.402 37.1544C342.454 34.7255 341.19 32.6589 339.589 30.9333C327.629 38.0026 307.704 47.5146 285.202 53.712C262.387 59.9958 236.691 62.9362 213.914 56.2343C202.479 52.8698 195.015 49.0075 190.527 44.9373C186.738 47.8248 182.254 50.5925 177.104 53.0066C159.598 61.2139 134.402 65.3361 102.593 56.2385C94.5928 53.9505 88.9439 51.0446 85.2925 47.6559C84.4991 46.9196 83.8008 46.1607 83.1945 45.3827C79.3671 45.9027 75.4212 46.2756 71.4138 46.5232C46.7917 48.0446 19.3697 44.8605 1.62355 41.4605C0.538707 41.2526 -0.172238 40.2047 0.0356058 39.1199C0.243449 38.035 1.29138 37.3241 2.37621 37.5319C19.9124 40.8917 46.9821 44.0253 71.1672 42.5308C74.5275 42.3232 77.8231 42.0267 81.0223 41.6309C80.3258 39.8726 80.0194 38.051 80.072 36.1977C80.1857 32.198 81.9628 28.3045 84.5552 24.8005C87.1579 21.2824 90.6789 18.0233 94.5256 15.254C98.3772 12.4812 102.613 10.158 106.692 8.53791C110.745 6.92857 114.772 5.96146 118.178 6.02977C121.563 6.09766 124.818 7.23296 126.373 10.3668C127.847 13.3365 127.399 17.3913 125.378 22.3161C121.955 30.6604 114.434 36.3212 104.943 40.0695C99.8325 42.0877 94.0778 43.5823 87.9352 44.6508C87.9611 44.6752 87.9872 44.6996 88.0135 44.724C91.0266 47.5202 96.0114 50.1959 103.693 52.3927C134.607 61.2345 158.807 57.1669 175.407 49.3849C180.17 47.1515 184.309 44.6122 187.802 41.9832C185.891 39.4388 184.998 36.8276 184.955 34.2768C184.912 31.695 185.743 29.3325 187.009 27.3177C189.499 23.3534 193.829 20.4797 197.528 19.48C199.337 18.9911 201.388 18.8454 203.047 19.6891C203.928 20.1375 204.656 20.8499 205.095 21.8225C205.521 22.7679 205.616 23.8269 205.487 24.9118C205.02 28.8644 202.121 33.8856 197.426 38.8052C196.291 39.9945 195.039 41.1909 193.673 42.3789C197.549 45.7069 204.215 49.2112 215.043 52.3969C236.799 58.7986 261.656 56.0482 284.14 49.8556C305.516 43.9683 324.538 35.0278 336.347 28.1959C335.169 27.4208 333.872 26.758 332.451 26.2034C329.378 25.004 325.724 24.3102 321.448 24.0789ZM341.968 27.6376C340.569 26.2389 339.004 25.06 337.283 24.079C339.004 23.0979 340.569 21.919 341.968 20.5203C343.367 19.1215 344.546 17.5559 345.527 15.8351C346.508 17.5559 347.687 19.1215 349.085 20.5203C350.484 21.919 352.05 23.0979 353.77 24.0789C352.05 25.06 350.484 26.2389 349.085 27.6376C347.687 29.0364 346.508 30.602 345.527 32.3228C344.546 30.602 343.367 29.0364 341.968 27.6376ZM84.0704 36.3113C84.0256 37.888 84.3411 39.4789 85.1484 41.0561C91.8783 40.008 98.093 38.4741 103.474 36.3491C112.433 32.8111 118.829 27.7408 121.678 20.7978C123.577 16.1679 123.472 13.5199 122.79 12.145C122.189 10.9341 120.789 10.0829 118.098 10.029C115.427 9.97539 111.957 10.751 108.169 12.2555C104.408 13.7491 100.46 15.9108 96.8626 18.5003C93.2608 21.0933 90.0684 24.0739 87.7708 27.1795C85.4628 30.2991 84.1528 33.4131 84.0704 36.3113ZM194.532 36.0438C193.449 37.1789 192.244 38.3273 190.919 39.4717C189.515 37.5634 188.981 35.7917 188.955 34.2104C188.927 32.5511 189.457 30.9407 190.396 29.4457C192.315 26.3903 195.777 24.0967 198.572 23.3415C200.009 22.9529 200.879 23.0743 201.233 23.2542C201.358 23.3177 201.409 23.3792 201.448 23.4669C201.5 23.5817 201.583 23.8694 201.515 24.442C201.199 27.1191 199.002 31.36 194.532 36.0438Z" fill="url(#paint0_linear_93_10588)"/>
<defs>
<linearGradient id="paint0_linear_93_10588" x1="-0.000488281" y1="30.6974" x2="369.606" y2="30.6974" gradientUnits="userSpaceOnUse">
<stop stop-color="#EC008C"/>
<stop offset="1" stop-color="#FC6767"/>
</linearGradient>
</defs>
</svg>
