<svg width="289" height="293" viewBox="0 0 289 293" fill="none" xmlns="http://www.w3.org/2000/svg">
<path fill-rule="evenodd" clip-rule="evenodd" d="M178.872 230.917C172.085 233.585 164.066 234.215 157.061 231.942C150.362 229.768 144.28 224.929 140.6 218.844C137.322 213.424 135.953 206.992 137.89 200.579C137.983 200.272 138.283 200.076 138.573 200C140.158 201.443 141.138 202.876 142.116 204.302C143.765 206.706 145.419 209.086 147.688 211.142C150.989 214.132 155.438 216.561 159.853 217.362C164.175 218.148 168.599 217.453 172.47 215.384C174.824 214.127 176.727 212.446 178.611 210.757C180.663 208.918 182.683 207.051 185.509 206.012C187.774 205.18 190.153 205.882 191.981 207.275C193.945 208.771 195.358 211.113 195.279 213.562C195.158 217.356 193.497 220.521 191.088 223.132C187.83 226.662 183.223 229.206 178.872 230.917ZM170.814 136.367C178.365 140.957 189.871 151.66 181.748 163.039C172.186 173.073 158.418 161.569 151.634 156.366C145.343 152.333 138.275 162.704 144.112 167.412C193.135 203.708 213.03 137.567 174.633 130.97C170.406 130.243 168.836 134.947 170.814 136.367ZM91.3878 72.7679C101.68 72.2759 110.75 76.8979 120.558 78.9979C129.622 80.9399 138.552 79.7739 147.367 77.3039C161.673 73.2949 167.587 95.1949 153.476 99.4629C143.2 102.571 132.38 102.787 121.835 101.185C112.468 99.7609 104.616 95.2009 95.6848 92.5459C88.0203 90.2685 79.0039 91.215 70.9097 92.2872L67.7678 92.7099C63.0978 93.3389 58.4028 93.9699 53.7788 94.8829C49.7668 95.6759 45.7618 97.1269 41.6668 97.2949C41.2018 97.3149 40.8078 96.7109 41.1008 96.3079C45.8577 89.7773 55.0258 84.6244 62.3185 81.1876L62.8128 80.9559C71.8148 76.7589 81.3648 73.2459 91.3878 72.7679ZM87.6171 120.923L87.6158 120.698C87.6298 114.321 91.3438 99.7618 100.524 99.7618C106.259 99.7618 109.741 109.671 110.344 119.885L110.364 120.302C110.631 126.652 108.888 140.533 100.524 140.533C92.0714 140.533 87.704 127.386 87.6171 120.923ZM222.772 120.923L222.774 120.698C222.76 114.321 219.046 99.7618 209.866 99.7618C204.274 99.7618 200.824 109.181 200.097 119.12L200.046 119.885C199.684 126.021 201.314 140.533 209.866 140.533C218.318 140.533 222.685 127.386 222.772 120.923ZM222.632 65.0012L223.288 65.0156C234.016 65.3876 245.051 71.7426 247.915 82.4176C248.063 82.9716 247.38 83.3446 246.975 82.9646C238.154 74.7059 226.291 82.5973 217.458 86.7337L214.213 88.2325C202.826 93.5303 189.875 99.7587 177.231 95.8106C171.226 93.9356 167.412 87.7656 169.125 81.5336C170.649 75.9886 177.342 71.3286 183.139 73.33L183.402 73.4256C188.112 75.2273 193.904 73.4018 198.768 71.6021L202.764 70.1016C209.189 67.6634 215.645 64.9356 222.632 65.0012Z" fill="black"/>
</svg>
