<svg width="240" height="48" viewBox="0 0 240 48" fill="none" xmlns="http://www.w3.org/2000/svg">
<path d="M100.336 35.9997C95.3804 35.9997 90.7803 34.5189 87.7097 31.7725C85.3899 29.6977 84.2752 26.8794 84.2752 23.9787C84.2752 21.1133 85.438 18.2755 87.7094 16.2116C90.5611 13.6218 95.5958 12 100.336 12C105.582 12 109.78 13.3166 112.99 16.2187C115.273 18.2837 116.377 21.1089 116.377 23.9789C116.377 26.7608 115.206 29.7234 112.99 31.7725C110.001 34.5366 105.304 35.9997 100.336 35.9997V32.8343C102.966 32.8343 105.406 31.9294 107.11 30.2399C108.802 28.562 109.591 26.4994 109.591 23.9787C109.591 21.5638 108.74 19.3061 107.11 17.7048C105.429 16.0547 102.931 15.1263 100.336 15.1263C97.7332 15.1263 95.2334 16.0452 93.5509 17.7048C91.9296 19.3056 91.077 21.5698 91.077 23.9787C91.077 26.3801 91.9395 28.643 93.5509 30.2402C95.2348 31.9094 97.7258 32.8346 100.336 32.8346V36V35.9997ZM64.1158 12.0115C61.465 12.0115 58.4535 12.5056 55.8946 13.6443C53.5331 14.6943 51.6 16.3925 51.6 19.2078C51.5989 21.7434 53.2161 23.2284 53.1721 23.1873C53.86 23.8182 54.9673 24.8926 57.8623 25.5236C59.1561 25.8055 61.9224 26.2386 64.677 26.5254C67.4114 26.8128 70.1023 27.086 71.1984 27.3625C72.0692 27.5834 73.532 27.8842 73.532 29.5195C73.532 31.1482 71.9909 31.6452 71.7231 31.7531C71.4555 31.8585 69.6068 32.7038 66.2835 32.7038C63.8299 32.7038 60.8802 31.9685 59.805 31.5853C58.5655 31.1457 57.2654 30.5643 56.0526 29.0881C55.751 28.7221 55.2752 27.7156 55.2752 26.7189H52.2675V35.117H55.6106V33.9823C55.6106 33.8531 55.7727 33.3218 56.3339 33.5745C57.0322 33.8906 59.082 34.7039 61.2252 35.1498C62.9824 35.516 64.1156 35.7786 66.3002 35.7786C69.8647 35.7786 71.7797 35.1999 73.1034 34.8232C74.3506 34.4674 75.8916 33.8285 77.1434 32.8338C77.8214 32.2959 79.308 30.9171 79.308 28.4144C79.308 26.0122 78.0142 24.5212 77.559 24.0676C76.939 23.4495 76.1817 22.9705 75.3925 22.6012C74.7049 22.2788 73.6199 21.8915 72.732 21.6749C71.0088 21.2534 67.1125 20.7333 65.2492 20.539C63.2953 20.3356 59.9058 20.0558 58.5521 19.6384C58.1417 19.5117 57.305 19.1145 57.305 18.1466C57.305 17.4582 57.6876 16.8746 58.4439 16.4029C59.6443 15.6535 62.0691 15.1876 64.5966 15.1876C67.5847 15.1766 70.1153 15.8574 71.725 16.5746C72.2725 16.8182 72.9131 17.168 73.4218 17.5819C73.9959 18.0483 74.8019 19.0176 75.0933 20.3695H77.7936V13.0593H74.7785V13.909C74.7785 14.1833 74.4942 14.5397 73.9566 14.2451C72.6073 13.5397 68.7923 12.0178 64.1153 12.0115H64.1158ZM130.19 13.3399L144.898 26.5665L144.747 17.6613C144.732 16.4935 144.516 16.006 143.249 16.006H140.483V13.3421H153.059V16.006H150.362C149.069 16.006 148.987 16.418 148.972 17.6613L149.2 34.6771H144.893L127.952 19.611L127.956 30.3034C127.971 31.4657 128.025 32.0131 129.227 32.0131H132.247V34.676H119.897V32.0134H122.784C123.863 32.0134 123.82 30.9888 123.82 30.2429V17.7625C123.82 16.957 123.706 16.0079 122.013 16.0079H119.67V13.3399H130.19ZM167.429 32.0082C167.548 32.0082 168.072 31.9932 168.174 31.9622C168.302 31.9237 168.42 31.858 168.52 31.7696C168.62 31.6813 168.699 31.5723 168.752 31.4504C168.791 31.36 168.81 30.9604 168.81 30.8736L168.812 26.6637C168.812 26.5624 168.805 26.5186 168.632 26.293C168.443 26.0467 160.928 17.5611 160.585 17.1874C160.157 16.7235 159.407 16.0063 158.268 16.0063H155.655V13.3413H170.403V16.003H168.625C168.213 16.003 167.94 16.3917 168.291 16.8237C168.291 16.8237 173.253 22.7381 173.3 22.8C173.347 22.8629 173.386 22.878 173.449 22.8205C173.511 22.7617 178.536 16.8778 178.575 16.8313C178.814 16.5461 178.652 16.006 178.137 16.006H176.313V13.3413H188.4V16.006H185.7C184.72 16.006 184.322 16.1867 183.585 17.0169C183.247 17.3968 175.653 26.0349 175.446 26.2689C175.338 26.3913 175.347 26.5618 175.347 26.6631V30.8725C175.347 30.9579 175.367 31.3581 175.405 31.4479C175.459 31.5701 175.538 31.6792 175.638 31.7676C175.738 31.856 175.857 31.9216 175.985 31.9598C176.086 31.991 176.604 32.0063 176.722 32.0063H179.484V34.6708H164.812V32.006L167.43 32.0082H167.429Z" fill="#F5F5F5"/>
</svg>
