<svg width="240" height="48" viewBox="0 0 240 48" fill="none" xmlns="http://www.w3.org/2000/svg">
<g clip-path="url(#clip0_79_34027)">
<path d="M125.073 37.4046C121.775 37.4046 119.952 34.6866 119.952 31.4797C119.952 28.3314 121.775 25.6134 125.073 25.6134C128.409 25.6134 130.232 28.3314 130.232 31.4797C130.232 34.6866 128.409 37.4046 125.073 37.4046ZM125.073 20.8812C118.458 20.8812 114.462 25.7503 114.462 31.4992C114.462 37.2482 118.458 42.1563 125.073 42.1563C131.726 42.1563 135.722 37.2482 135.722 31.4992C135.722 25.7503 131.726 20.8812 125.073 20.8812ZM162.472 21.3897L158.728 35.019L154.325 21.3897H149.63L145.227 35.019L141.444 21.3897H135.955L142.065 41.6479H147.729L151.977 27.8426L156.226 41.6479H161.89L168 21.3897H162.472ZM84.5505 22.2696C83.9297 22.7976 83.5224 23.5797 83.5224 24.4597C83.5224 26.024 84.7832 27.2951 86.3351 27.2951C86.8782 27.2951 87.3826 27.1386 87.8287 26.8649V26.8844C87.8481 26.8649 87.8869 26.8453 87.9063 26.8258C88.0227 26.7475 88.1391 26.6498 88.2361 26.552C90.6996 24.6748 93.8227 25.0072 95.9952 27.2168C98.3036 29.5438 98.2648 33.2982 95.9564 35.6252C94.8507 36.7398 92.5618 37.4046 91.0294 37.4046H90.7384C83.406 37.4046 77.7224 31.3819 77.7224 23.9904C77.7224 16.5989 83.697 10.5761 91.0294 10.5761C93.6869 10.5761 96.2668 11.3583 98.4587 12.864L101.679 8.09274C98.5363 5.94177 94.8507 4.80762 91.0488 4.80762C80.5351 4.80762 72.0001 13.4115 72.0001 24.0099C72.0001 34.6084 80.2442 43.2122 90.7578 43.2122H91.0682C94.133 43.1731 97.9156 41.9608 100.088 39.7707C104.647 35.1754 104.627 27.7253 100.069 23.13C95.7042 18.7303 89.109 18.2805 84.5505 22.2696ZM106.315 41.6479H111.513V14.5652H106.315V41.6479Z" fill="url(#paint0_linear_79_34027)"/>
</g>
<defs>
<linearGradient id="paint0_linear_79_34027" x1="119.991" y1="4.82376" x2="119.991" y2="43.2137" gradientUnits="userSpaceOnUse">
<stop stop-color="#5A62D2"/>
<stop offset="1" stop-color="#6067D2"/>
</linearGradient>
<clipPath id="clip0_79_34027">
<rect width="96" height="38.4" fill="white" transform="translate(72 4.7998)"/>
</clipPath>
</defs>
</svg>
