<svg width="240" height="48" viewBox="0 0 240 48" fill="none" xmlns="http://www.w3.org/2000/svg">
<path fill-rule="evenodd" clip-rule="evenodd" d="M124.855 11.0763L119.19 14.5713C118.736 13.8653 118.166 13.2343 117.434 12.6225C116.702 12.01 115.807 11.4167 114.482 11.0326C113.156 10.6492 111.4 10.4764 109.501 10.5432C107.601 10.6106 105.56 10.9191 103.276 11.898C100.992 12.8746 98.4662 14.5216 96.2697 16.5038L100.491 5.28404H89.8998L82.7452 10.1716L84.2795 5.28404H73.7279L65.9571 10.4312L53.4167 43.1523H63.5678L71.1028 37.7931L69.1903 43.1998H79.5513L84.9736 38.7779C85.2754 39.5758 85.8494 40.241 87.1931 41.0085C88.5368 41.7775 90.651 42.6525 93.0847 42.8839C95.5178 43.1145 98.2712 42.703 100.611 41.796C102.95 40.8891 104.878 39.4876 106.065 38.6504C107.252 37.8146 107.699 37.544 108.149 37.2785L105.994 42.7549H116.26L123.252 37.0582C123.132 38.0475 123.411 39.0775 124.15 39.9785C124.887 40.878 126.081 41.647 127.73 42.1016C129.38 42.5576 131.485 42.7 133.408 42.5547C135.331 42.413 137.07 41.9837 138.858 41.0715C140.644 40.1602 142.475 38.7631 144.016 37.1087L142.128 42.5124H163.024L171.479 36.4294L173.679 29.3483H165.723L177.685 17.5716L180.246 11.0563H160.134L157.651 12.0114L157.951 11.0689H147.385L149.683 4.7998H140.62L132.515 11.0756H124.855V11.0763ZM182.388 16.3347H183.113V14.8635H183.302C183.728 14.8635 183.941 15.0533 184.307 15.757L184.603 16.3347H185.5L185.08 15.6154C184.711 14.9829 184.622 14.8842 184.321 14.7678C184.915 14.6833 185.285 14.2999 185.285 13.7697C185.285 13.1201 184.852 12.7537 184.084 12.7523H182.389V16.3347H182.388V16.3347ZM183.113 14.2999V13.3225H183.775C184.25 13.3225 184.516 13.4879 184.516 13.7838C184.516 14.1649 184.308 14.2947 183.701 14.2984L183.408 14.3006H183.113V14.2999ZM183.909 11.1535C183.466 11.1538 183.027 11.2414 182.618 11.4113C182.209 11.5812 181.838 11.8301 181.525 12.1437C181.212 12.4574 180.964 12.8296 180.795 13.2391C180.626 13.6487 180.539 14.0875 180.54 14.5305C180.54 14.9734 180.626 15.4121 180.795 15.8215C180.964 16.231 181.212 16.6031 181.525 16.9166C181.838 17.2301 182.21 17.479 182.619 17.6489C183.028 17.8188 183.466 17.9064 183.909 17.9068C184.803 17.9054 185.661 17.549 186.292 16.9159C186.924 16.2829 187.279 15.4249 187.278 14.5305C187.279 14.0875 187.192 13.6488 187.023 13.2394C186.854 12.8299 186.606 12.4578 186.293 12.1442C185.98 11.8306 185.609 11.5817 185.2 11.4117C184.791 11.2417 184.352 11.1539 183.909 11.1535ZM183.915 11.8127C184.271 11.8136 184.624 11.8846 184.952 12.0217C185.281 12.1588 185.579 12.3593 185.831 12.6117C186.082 12.8641 186.281 13.1636 186.416 13.4929C186.552 13.8223 186.621 14.1751 186.62 14.5312C186.621 15.2501 186.337 15.94 185.83 16.4493C185.323 16.9587 184.634 17.2458 183.915 17.2476C182.42 17.2476 181.211 16.0307 181.21 14.5305C181.209 14.1744 181.278 13.8216 181.413 13.4922C181.549 13.1628 181.748 12.8634 181.999 12.611C182.25 12.3586 182.549 12.1582 182.878 12.0212C183.206 11.8842 183.559 11.8134 183.915 11.8127V11.8127Z" fill="black"/>
<path fill-rule="evenodd" clip-rule="evenodd" d="M79.2339 17.2727L83.397 5.92465H74.2907L62.5244 36.7623H71.7079L76.4998 23.9964H83.3459L78.6221 36.6399H87.9287L99.494 5.86978H90.2742L85.8612 17.2727H79.2339ZM118.737 15.3891C118.542 14.7062 118.14 14.1515 117.274 13.4863C116.107 12.5907 114.748 11.98 113.303 11.7029C111.532 11.364 109.324 11.4641 107.933 11.599C106.542 11.7362 105.969 11.9068 105.406 12.0744C104.843 12.2412 104.29 12.4029 103.634 12.6943C102.978 12.9858 102.218 13.4062 101.5 13.8904C100.783 14.3748 100.111 14.9215 99.4903 15.5241C98.4106 17.871 97.3967 20.2476 96.4499 22.6512C95.4948 25.0694 94.5938 27.5343 94.1748 28.9959C93.7566 30.4576 93.8203 30.9166 93.824 31.3667C93.8285 31.8168 93.7714 32.2573 93.9976 32.8617C94.2237 33.4631 94.7317 34.2261 95.388 34.8083C96.0428 35.3889 96.8474 35.7886 97.824 36.08C98.8021 36.37 99.9537 36.5509 101.205 36.6547C102.456 36.7578 103.805 36.7853 105.249 36.6169C106.693 36.4501 108.231 36.0882 109.567 35.4178C110.904 34.746 112.038 33.7649 112.978 32.4865C113.917 31.2087 114.661 29.6344 115.088 27.9867H107.676C106.98 29.1672 106.188 30.31 105.663 30.941C105.137 31.5743 104.876 31.6974 104.597 31.8205C104.319 31.9466 104.02 32.0712 103.623 32.0334C103.227 31.9941 102.732 31.7901 102.5 31.1702C102.268 30.5517 102.299 29.5187 102.498 28.5599C102.688 27.6273 103.058 26.7405 103.587 25.9489H115.782C116.269 24.5398 116.775 23.1371 117.299 21.7413C117.821 20.3665 118.364 19.0317 118.642 17.9586C118.92 16.8834 118.93 16.0721 118.737 15.3891V15.3891ZM110.849 19.5811C110.645 20.0617 110.449 20.491 110.224 20.9033H105.487C105.728 20.2425 105.992 19.5905 106.279 18.9486C106.556 18.3257 106.832 17.7399 107.226 17.3031C107.621 16.8671 108.132 16.5808 108.714 16.4384C109.295 16.2961 109.945 16.2975 110.418 16.5875C110.891 16.8782 111.188 17.4566 111.229 18.012C111.27 18.5682 111.055 19.1006 110.849 19.5811V19.5811ZM128.805 21.2674C129.274 19.9838 129.932 18.7766 130.903 18.1685C131.876 17.5611 133.256 17.5916 134.634 17.6212L136.682 11.8875H124.831L115.469 36.3433H123.284L128.805 21.2674ZM131.638 32.2573C131.772 33.5476 132.326 34.3618 133.193 34.9892C134.059 35.6136 135.233 36.0496 137.099 36.3055C138.963 36.562 141.518 36.6384 143.367 36.3329C145.22 36.0259 146.367 35.3377 147.327 34.4805C148.288 33.6218 149.14 32.6311 149.587 31.4564L152.624 23.4676H145.479L143.288 29.3712C143.068 29.9652 142.845 30.5866 142.357 30.9893C141.869 31.3949 141.226 31.6122 140.722 31.535C140.216 31.4579 139.852 31.0886 139.687 30.663C139.522 30.2373 139.599 29.7753 139.754 29.3667L144.173 17.7732H154.605L156.948 11.7318H146.383L148.803 5.40186H140.925L132.449 27.6419C131.847 29.2192 131.506 30.9655 131.638 32.2573V32.2573ZM153.398 30.0082L151.331 36.0711H170.853L172.889 30.0082H163.781L176.987 17.5345L179.262 11.5686H160.135L157.86 17.5345H167.06L153.398 30.0082V30.0082Z" fill="#F7E946"/>
</svg>
