<svg width="240" height="48" viewBox="0 0 240 48" fill="none" xmlns="http://www.w3.org/2000/svg">
<path fill-rule="evenodd" clip-rule="evenodd" d="M81.2265 4.7998H54.2609C51.1598 4.7998 48.6507 7.49213 48.6507 10.8188V37.2495H75.6163C78.7177 37.2495 81.2265 34.5572 81.2265 31.2306" fill="#FFCB05"/>
<path fill-rule="evenodd" clip-rule="evenodd" d="M63.7739 10.7451C59.2784 10.7451 56.1169 13.5362 55.9687 16.9446V16.9694C55.8204 20.2792 58.2657 22.9711 61.7977 23.1689C61.4025 22.5515 61.1307 21.7858 61.1559 20.9705C61.2542 18.8465 63.0573 17.1177 65.157 17.1177H70.2695C72.7644 17.0929 74.8637 15.0428 74.9876 12.5483L75.0615 10.7451H63.7739Z" fill="black"/>
<path fill-rule="evenodd" clip-rule="evenodd" d="M68.1458 18.7725C68.5407 19.3899 68.862 20.1556 68.8124 20.9705C68.7137 23.0949 66.9354 24.7989 64.8113 24.8237H59.748C57.2283 24.8237 55.1042 26.8738 54.9808 29.3931L54.9064 31.1962L66.1944 31.1715C70.6895 31.1715 73.8514 28.3804 73.9993 24.972C74.1475 21.6622 71.6774 18.9699 68.1455 18.7725" fill="#ED1B23"/>
<path d="M189.247 37.0461C186.3 37.0461 185.061 34.984 185.061 33.0742V18.3601L188.641 17.4462V32.7278C188.641 33.5787 188.997 34.0212 189.907 34.0212H191.28V37.0465L189.247 37.0461ZM153.843 24.0698C152.961 23.1337 151.503 22.3068 149.381 22.3068H143.313L143.324 37.0082H146.902L146.904 25.5261H149.376V25.5314H149.381C150.097 25.5314 150.645 25.7491 151.061 26.1627C151.764 26.8646 151.875 28.018 151.884 29.3963H151.882V37.0119H155.461V29.4237C155.442 26.9622 155.098 25.3828 153.843 24.0694V24.0698ZM126.449 24.0698C125.568 23.1337 124.108 22.3068 121.992 22.3068H115.919L115.932 37.0082H119.511L119.512 25.5261H121.983V25.5314H121.992C122.704 25.5314 123.254 25.7491 123.669 26.1627C124.371 26.8646 124.482 28.018 124.492 29.3963V37.0119H128.069V29.4237H128.071C128.051 26.9622 127.706 25.3828 126.449 24.0694V24.0698ZM169.214 22.6675V22.4971H162.245V22.5046C160.847 22.5046 159.61 22.9704 158.816 23.7722C157.466 25.1215 157.358 26.937 157.358 29.4417C157.358 31.9463 157.466 33.7908 158.816 35.1382C159.612 35.9381 160.824 36.4061 162.227 36.4061C163.631 36.4061 164.706 36.0195 165.643 34.9731C165.643 34.9731 165.693 36.3101 165.693 36.5585C165.693 38.4319 164.456 40.0462 162.663 40.8277L162.657 43.1998C166.511 43.1998 169.219 39.9298 169.219 36.4876V22.6675H169.214ZM163.276 33.185C161.155 33.185 160.934 31.3405 160.934 29.4417C160.934 27.5372 161.156 25.7254 163.276 25.7254V25.7146H165.643V29.4417C165.643 31.3405 165.392 33.185 163.276 33.185ZM135.858 22.3267V22.3031H131.415V25.3662H135.365C136.97 25.4642 137.641 26.1552 137.641 27.6115V28.3299H134.241C130.895 28.3299 129.322 30.2123 129.322 32.5067C129.322 33.778 129.732 34.9352 130.507 35.7384C131.366 36.5983 132.554 37.0119 134.185 37.0119C135.844 37.0119 141.225 37.0029 141.225 37.0029L141.234 27.3923C141.234 24.2383 139.397 22.5335 135.858 22.3267ZM137.641 34.6668L134.85 34.6706C133.438 34.6706 132.775 34.0047 132.775 33.0089C132.775 32.9965 132.779 32.989 132.779 32.9729V32.3525C132.779 32.3397 132.775 32.3307 132.775 32.3164C132.775 31.2955 133.495 30.6859 134.794 30.6859H137.641V34.6668ZM112.537 24.1332C111.657 23.1971 110.195 22.3721 108.075 22.3721C105.958 22.3721 104.526 23.1971 103.644 24.1332C102.353 25.4826 102.019 27.1093 102.019 29.6935C102.019 32.3089 102.353 33.9341 103.644 35.2854C104.526 36.2211 105.959 37.0461 108.075 37.0461C110.195 37.0461 111.657 36.2211 112.537 35.2854C113.828 33.9341 114.162 32.3089 114.162 29.6935C114.162 27.1093 113.828 25.4822 112.537 24.1332ZM109.757 33.1902C109.345 33.6057 108.793 33.8253 108.075 33.8253C107.363 33.8253 106.84 33.6057 106.427 33.1906C105.681 32.4504 105.598 31.1825 105.598 29.6935C105.598 28.2083 105.681 26.9716 106.427 26.2243C106.84 25.8144 107.363 25.5929 108.075 25.5929C108.793 25.5929 109.345 25.8144 109.757 26.2243C110.5 26.9712 110.582 28.2083 110.582 29.6935C110.582 31.1829 110.5 32.4504 109.757 33.1906V33.1902ZM181.697 24.1332C180.817 23.1971 179.357 22.3721 177.235 22.3721C175.117 22.3721 173.682 23.1971 172.803 24.1332C171.509 25.4826 171.181 27.1093 171.181 29.6935C171.181 32.3089 171.509 33.9341 172.803 35.2854C173.682 36.2211 175.117 37.0461 177.235 37.0461C179.357 37.0461 180.817 36.2211 181.697 35.2854C182.992 33.9341 183.32 32.3089 183.32 29.6935C183.32 27.1093 182.992 25.4822 181.697 24.1332ZM178.916 33.1902C178.501 33.6057 177.956 33.8253 177.235 33.8253C176.519 33.8253 176 33.6057 175.583 33.1906C174.84 32.4504 174.756 31.1825 174.756 29.6935C174.756 28.2083 174.84 26.9716 175.583 26.2243C176 25.8144 176.519 25.5929 177.235 25.5929C177.955 25.5929 178.501 25.8144 178.917 26.2243C179.658 26.9712 179.744 28.2083 179.744 29.6935C179.744 31.1829 179.658 32.4504 178.916 33.1906V33.1902ZM99.2466 26.9442C98.4209 26.1736 97.293 25.6766 95.503 25.4297L93.189 25.0997C92.3906 24.9871 91.7578 24.6827 91.3735 24.3254C90.9598 23.9407 90.7947 23.4186 90.7947 22.9235C90.7947 21.5742 91.7867 20.4459 93.8237 20.4459L100.291 20.4421V17.1147H93.934C89.6919 17.1147 87.1058 19.565 87.1058 23.0616C87.1058 24.7139 87.5739 25.9799 88.5115 26.9138C89.3928 27.7695 90.6299 28.2905 92.3092 28.5405L94.6761 28.8727C95.5863 29.0067 96.0254 29.2007 96.4102 29.5596C96.823 29.9443 97.0156 30.523 97.0156 31.2103C97.0156 32.7736 95.813 33.6241 93.5733 33.6297V33.6189H87.4159V37.0412L93.4934 37.0465C97.5959 37.0465 100.761 34.8995 100.761 31.1033C100.761 29.3655 100.291 27.9347 99.2462 26.9445" fill="#F5F5F5"/>
</svg>
