<svg width="240" height="48" viewBox="0 0 240 48" fill="none" xmlns="http://www.w3.org/2000/svg">
<path fill-rule="evenodd" clip-rule="evenodd" d="M51.3407 17.7213V37.4232H47.2573V18.5115L51.3407 17.7213ZM51.8289 12.8713C51.8289 14.6014 50.701 15.992 49.299 15.992C47.9279 15.992 46.8 14.6014 46.8 12.8713C46.8 11.1411 47.9579 9.75059 49.3598 9.75059C50.731 9.75059 51.8289 11.1419 51.8289 12.8713ZM62.6447 17.6843C63.0096 18.4737 63.222 19.301 63.222 20.0904C63.8326 19.5641 64.3507 19.1135 65.0204 18.662C65.8435 18.1349 66.9105 17.8348 67.8235 17.8348C68.6696 17.8344 69.4928 18.1056 70.169 18.6076C70.8452 19.1096 71.3377 19.815 71.5721 20.6175C71.7837 21.3313 71.8761 22.1585 71.8761 23.3607V37.4232H67.8535V24.9026C67.8535 22.7218 67.5495 22.0829 66.4824 22.0829C65.6602 22.0829 64.5931 22.7596 63.6501 23.8122V37.424H59.5659V23.4742C59.5659 21.8197 59.3835 20.2401 59.0169 18.963L62.6447 17.6843ZM92.354 30.3916C92.354 35.1281 92.6597 36.6699 92.9346 37.4232H89.2761C89.1544 37.1214 89.0936 36.8213 89.032 36.2941C88.0265 37.3845 86.8387 37.9116 85.4375 37.9116C81.4766 37.9116 78.9767 34.1134 78.9767 28.1351C78.9767 22.1199 81.6898 17.9844 85.65 17.9844C86.7779 17.9844 87.6617 18.3224 88.4239 19.0748C88.3622 18.6612 88.3014 17.3447 88.3014 16.2173V9.6001L92.354 10.3895V30.3916ZM86.1381 22.008C84.3105 22.008 83.5175 23.8879 83.5175 28.1746C83.5175 32.31 84.2172 33.6627 86.3522 33.6627C87.1136 33.6627 87.9666 33.0254 88.3622 32.4227V23.2481C87.6009 22.4217 86.8695 22.008 86.1381 22.008ZM104.903 17.7213V37.4232H100.819V18.5115L104.903 17.7213ZM105.389 12.8713C105.389 14.6014 104.261 15.992 102.861 15.992C101.489 15.992 100.362 14.6014 100.362 12.8713C100.362 11.1411 101.52 9.75059 102.92 9.75059C104.293 9.75059 105.389 11.1419 105.389 12.8713ZM121.722 23.1354C120.899 22.1955 120.014 21.6322 119.253 21.6322C117.424 21.6322 116.601 23.5869 116.601 28.0989C116.601 30.6169 116.876 32.1225 117.394 32.949C117.82 33.6249 118.521 34.0394 119.222 34.0394C120.166 34.0394 121.019 33.5493 122.026 32.4589L122.268 32.1974L124.128 35.2424C123.518 35.994 123.244 36.2571 122.696 36.6699C121.599 37.4602 120.379 37.873 118.885 37.873C114.589 37.873 112.09 34.189 112.09 27.9476C112.09 23.5121 113.461 20.5797 115.29 19.0378C116.326 18.1728 117.85 17.6095 119.16 17.6095C120.197 17.6095 121.324 17.9104 122.178 18.4745C122.756 18.8503 123.03 19.1135 123.701 19.8281L121.722 23.1354ZM132.354 18.8873C133.877 18.0979 135.188 17.7591 136.62 17.7591C139.241 17.7591 141.039 18.963 141.647 21.1051C141.862 21.8946 141.953 22.4965 141.922 24.5654L141.832 31.0313V31.3701C141.832 33.4374 142.105 34.2277 143.294 35.3164L141.13 38.4001C140.185 37.9116 139.333 37.0466 138.937 36.0697C138.631 36.4455 138.295 36.8213 137.993 37.0844C137.23 37.7603 136.134 38.1361 134.853 38.1361C131.379 38.1361 129.489 35.957 129.489 32.1217C129.489 27.6105 132.019 25.5045 136.986 25.5045C137.29 25.5045 137.565 25.5045 137.901 25.5415V24.7529C137.901 22.6091 137.566 21.8946 136.072 21.8946C134.763 21.8946 133.238 22.6848 131.562 24.0753L129.826 20.4662C130.648 19.8264 131.256 19.4506 132.354 18.8873ZM137.656 29.001C134.823 29.001 133.848 29.64 133.848 31.9334C133.848 33.4366 134.609 34.4513 135.646 34.4513C136.409 34.4513 137.168 33.9629 137.779 33.1356L137.839 29.0002H137.656V29.001ZM156.606 21.6322H153.986V31.2945C153.986 33.7376 154.351 34.3765 155.753 34.3765C156.119 34.3765 156.485 34.2638 157.216 34.0007L157.735 37.0087C156.545 37.609 155.48 37.873 154.413 37.873C152.34 37.873 150.695 36.7472 150.207 35.0541C149.964 34.2268 149.933 33.851 149.933 32.0831V21.6322H148.38V18.1728H149.933C149.933 16.2938 149.933 15.0529 150.085 13.6245L154.231 12.3458C154.069 14.284 153.988 16.228 153.987 18.1728H157.645L156.606 21.6322ZM175.469 20.6915C176.719 22.4957 177.269 24.6016 177.269 27.7223C177.269 31.0305 176.659 33.2861 175.318 35.1667C174.128 36.8213 172.573 37.836 170.166 37.836C165.931 37.836 163.159 33.925 163.159 27.872C163.159 21.8197 165.961 17.797 170.166 17.797C172.391 17.7961 174.128 18.7369 175.469 20.6915ZM168.125 23.4742C167.85 24.4898 167.698 25.8417 167.698 27.7593C167.698 29.9771 167.882 31.6316 168.216 32.6093C168.581 33.6611 169.496 34.1882 170.288 34.1882C172.057 34.1882 172.818 32.2335 172.818 27.6853C172.818 25.0901 172.543 23.3986 171.995 22.5335C171.598 21.8946 170.959 21.5188 170.228 21.5188C169.253 21.5188 168.46 22.2704 168.125 23.4742ZM187.381 17.7213C187.746 18.5115 187.96 19.3766 188.02 20.4662C188.599 19.4893 189.574 18.4359 190.337 18.0223C190.67 17.834 191.221 17.7213 191.677 17.7213C192.287 17.7213 192.561 17.797 193.2 18.1349L192.072 22.5721C191.676 22.309 191.342 22.1963 190.884 22.1963C189.97 22.1963 189.148 22.7226 188.385 23.8122V37.424H184.302V24.5646C184.302 21.9694 184.058 20.0139 183.723 18.9244L187.381 17.7213Z" fill="#F5F5F5"/>
</svg>
