<svg width="128" height="48" viewBox="0 0 128 48" fill="none" xmlns="http://www.w3.org/2000/svg">
<g clip-path="url(#clip0_79_34033)">
<path d="M74.4609 2.6199C74.4305 2.7499 74.4001 12.4399 74.4001 24.1599C74.4001 43.5099 74.4102 45.4799 74.5622 45.5399C74.6534 45.5699 84.1484 45.5999 95.67 45.5999C111.822 45.5999 116.646 45.5699 116.737 45.4799C116.828 45.3899 116.859 43.7599 116.859 38.7799V32.1999H140.956C160.017 32.1999 165.114 32.1699 165.326 32.0699L165.6 31.9499V16.2299L165.347 16.1199C165.144 16.0299 159.054 15.9999 140.976 15.9999H116.859V9.5099C116.859 5.9399 116.828 2.8799 116.798 2.7099L116.737 2.3999H74.5217L74.4609 2.6199ZM93.7345 10.7799L93.7548 15.9999H92.9441V5.6899L93.1772 5.5999C93.7345 5.3799 93.7041 5.1199 93.7345 10.7799ZM95.2748 10.7599V16.0099L94.8492 15.9799L94.4134 15.9499L94.383 10.8499C94.3729 8.0399 94.383 5.6899 94.4134 5.6199C94.4337 5.5499 94.6364 5.4999 94.8694 5.4999H95.2748V10.7599ZM98.8214 5.6999C101.213 6.1999 101.892 6.4199 103.939 7.3599C105.905 8.2599 108.134 9.9399 109.735 11.7299C110.566 12.6499 111.62 14.1199 111.964 14.7999C112.005 14.8799 112.157 15.1699 112.319 15.4299C112.522 15.7699 112.562 15.9199 112.471 15.9499C112.41 15.9799 108.661 15.9899 104.141 15.9799L95.9334 15.9499L95.903 10.8499C95.8929 8.0399 95.903 5.6899 95.9334 5.6099C95.974 5.4999 96.207 5.4799 97.1292 5.5299C97.7473 5.5599 98.5174 5.6299 98.8214 5.6999ZM92.255 10.8099C92.2753 13.5599 92.255 15.8599 92.2246 15.9199C92.1942 15.9699 92.0118 15.9999 91.8193 15.9799L91.4748 15.9499L91.4444 11.0099C91.4342 7.4499 91.4545 6.0299 91.5356 5.9399C91.5964 5.8599 91.7788 5.7999 91.9409 5.7999H92.2348L92.255 10.8099ZM90.735 10.9599C90.7553 13.6299 90.735 15.8599 90.7046 15.9199C90.6742 15.9699 90.4918 15.9999 90.2993 15.9799L89.9548 15.9499L89.9244 11.1999C89.9041 6.4599 89.9041 6.4499 90.1169 6.2699C90.2385 6.1799 90.4209 6.0999 90.5222 6.0999C90.7046 6.0999 90.7148 6.2899 90.735 10.9599ZM89.2454 11.2999V15.9499H88.4348V6.8599L88.6881 6.7299C89.2657 6.4299 89.2454 6.2399 89.2454 11.2999ZM87.7254 7.2899C87.7558 7.3399 87.7761 14.9199 87.7761 24.1199V40.8499L87.5633 40.8799C87.4518 40.8999 87.2694 40.8399 87.158 40.7399C86.9654 40.5699 86.9654 40.2099 86.9654 24.1099C86.9654 15.0599 87.006 7.5999 87.0465 7.5399C87.1174 7.4299 87.4721 7.2099 87.5937 7.1999C87.6342 7.1999 87.6849 7.2399 87.7254 7.2899ZM86.3068 24.0999C86.3068 38.5699 86.2865 40.1499 86.1446 40.1799C86.0636 40.1899 85.871 40.0999 85.719 39.9599L85.4454 39.7099V8.4199L85.7292 8.2099C86.3473 7.7399 86.3068 6.5099 86.3068 24.0999ZM84.7361 9.0999C84.7766 20.7199 84.7158 39.0599 84.6348 39.1399C84.5638 39.2099 84.4321 39.1399 84.2294 38.9499L83.9254 38.6599V9.5599L84.199 9.2799C84.4726 8.9999 84.7361 8.9099 84.7361 9.0999ZM83.3174 24.0999C83.3174 39.3499 83.358 38.3299 82.7196 37.6899L82.4054 37.3799V10.8199L82.6689 10.5099C82.8108 10.3399 83.0134 10.1999 83.1249 10.1999C83.3174 10.1999 83.3174 10.4799 83.3174 24.0999ZM81.7974 11.7199C81.8177 15.2999 81.7873 36.5399 81.7569 36.5699C81.7366 36.5899 81.5542 36.4599 81.3516 36.2799L80.9868 35.9499V12.2399L81.3009 11.9199C81.6353 11.5799 81.7974 11.5199 81.7974 11.7199ZM80.2876 24.0499C80.2876 29.8699 80.2572 34.6499 80.2268 34.6799C80.1558 34.7499 79.7708 34.3899 79.7708 34.2499C79.7708 34.1799 79.6998 34.0699 79.6188 33.9999C79.487 33.8899 79.4668 32.6699 79.4668 24.1299C79.4668 15.1699 79.4769 14.3699 79.639 14.1199C79.8518 13.7799 80.1964 13.3899 80.247 13.4399C80.2673 13.4599 80.2876 18.2299 80.2876 24.0499ZM78.8588 24.0999C78.8588 28.9399 78.8182 32.2099 78.7676 32.2499C78.7169 32.2799 78.575 32.0899 78.4433 31.8299C78.3217 31.5599 78.1596 31.2099 78.0785 31.0499C77.8556 30.5899 77.9265 17.4099 78.1596 16.8999C78.4534 16.2299 78.6662 15.8899 78.7574 15.9499C78.8182 15.9899 78.8588 19.0599 78.8588 24.0999ZM164.364 23.8999C164.374 27.7199 164.364 30.9499 164.333 31.0799L164.283 31.2999L126.607 31.2799L88.9414 31.2499L88.911 24.1999C88.9009 20.3199 88.911 17.0899 88.9414 17.0199C88.9718 16.9199 96.5718 16.8999 126.658 16.9199L164.333 16.9499L164.364 23.8999ZM77.3286 24.0999C77.3286 27.3099 77.2678 28.2999 77.1057 27.7499C76.8118 26.7299 76.7105 25.4999 76.7612 23.6299C76.7916 22.5399 76.8625 21.4699 76.9132 21.2499C76.974 21.0299 77.055 20.7099 77.0956 20.5499C77.2577 19.8099 77.3286 20.8299 77.3286 24.0999ZM89.1745 32.2199C89.3569 32.3999 89.3468 41.4599 89.1745 41.5299C89.0022 41.5799 88.5665 41.4199 88.4652 41.2699C88.4246 41.1999 88.3841 39.1399 88.3841 36.6799C88.3841 33.1999 88.4145 32.2099 88.5158 32.1699C88.7388 32.0699 89.0529 32.0999 89.1745 32.2199ZM90.6844 32.2399C90.8161 32.4699 90.6844 42.0299 90.5526 42.0699C90.4918 42.0899 90.3196 42.0099 90.1777 41.8999L89.9041 41.6899V36.9499C89.9041 33.2599 89.9345 32.2099 90.0358 32.1699C90.279 32.0699 90.6033 32.0999 90.6844 32.2399ZM92.2145 37.2699L92.2348 42.3999H92.022C91.9105 42.3999 91.7281 42.3499 91.6166 42.2999C91.4342 42.1999 91.4241 42.0299 91.4241 37.1999C91.4241 31.8699 91.4038 32.0899 91.9308 32.1299L92.1841 32.1499L92.2145 37.2699ZM93.7345 37.3699L93.7548 42.5999H93.471C93.319 42.5999 93.1366 42.5499 93.0657 42.4799C92.8833 42.2999 92.8934 32.2399 93.0758 32.1599C93.1366 32.1399 93.3089 32.1199 93.4508 32.1299L93.7041 32.1499L93.7345 37.3699ZM95.2241 37.3999V42.6499H94.4134L94.383 37.5099C94.3628 33.6899 94.3932 32.3399 94.4844 32.2299C94.5452 32.1499 94.7276 32.0999 94.91 32.1199L95.2241 32.1499V37.3999ZM112.491 32.2399C112.572 32.3299 112.572 32.3999 112.512 32.4399C112.461 32.4799 112.309 32.7099 112.177 32.9699C111.914 33.5099 110.799 35.1599 110.272 35.8099C109.816 36.3799 108.022 38.1399 107.404 38.6399C105.864 39.8699 103.209 41.2999 101.507 41.7999C99.7233 42.3299 98.0817 42.6299 96.8454 42.6399L95.9334 42.6499L95.903 37.4999C95.8929 34.6699 95.903 32.2899 95.9334 32.2199C96.0044 32.0299 112.329 32.0399 112.491 32.2399Z" fill="#F5F5F5"/>
<path d="M147.806 17.75C147.775 17.89 147.775 18.11 147.806 18.25L147.867 18.5H152.872C156.855 18.5 157.899 18.47 157.98 18.37C158.071 18.26 158.081 18.04 158.01 17.57C158.01 17.53 155.72 17.5 152.933 17.5H147.867L147.806 17.75ZM98.7199 18.67C97.9802 18.72 96.8959 19.01 96.1866 19.33C94.6362 20.04 93.5621 21.27 93.0351 22.95C92.7615 23.84 92.7311 25.51 92.9845 26.32C93.5823 28.21 94.7578 29.42 96.7338 30.19C97.5445 30.51 99.2874 30.7 101.405 30.7C102.581 30.7 103.807 30.66 104.141 30.6C104.476 30.55 105.307 30.46 105.986 30.41C106.664 30.36 107.313 30.26 107.435 30.2C107.627 30.1 107.637 30 107.637 28.04C107.637 26.25 107.617 25.99 107.475 25.93C107.384 25.9 106.827 25.93 106.229 26C104.354 26.23 102.56 26.24 101.466 26.04C100.362 25.84 99.9157 25.65 99.4799 25.2C99.2165 24.93 99.1759 24.81 99.1759 24.35C99.1759 23.44 99.7434 23.03 101.405 22.76C102.682 22.56 103.564 22.56 105.682 22.76C106.604 22.84 107.414 22.89 107.495 22.86C107.688 22.79 107.708 19.25 107.516 19.14C107.364 19.05 105.702 18.84 104.04 18.7C102.905 18.61 99.7535 18.59 98.7199 18.67ZM108.944 19.12C108.762 19.19 108.752 19.34 108.752 24.64C108.752 28.14 108.792 30.11 108.853 30.15C108.924 30.19 115.349 30.23 117.092 30.2C117.132 30.2 117.163 27.7 117.163 24.65V19.1L113.15 19.08C110.951 19.06 109.056 19.08 108.944 19.12ZM118.48 19.08C118.318 19.14 118.338 30.2 118.51 30.2C122.726 30.24 132.251 30.18 132.646 30.1C133.589 29.93 134.389 29.41 134.876 28.66C135.119 28.29 135.149 28.15 135.149 27.35C135.149 26.18 134.866 25.51 133.964 24.54L133.67 24.23L133.933 23.92C134.815 22.88 134.916 21.34 134.146 20.35C133.629 19.69 133.092 19.37 132.2 19.21C131.663 19.1 118.764 18.99 118.48 19.08ZM128.623 21.93C129.181 22.3 129.16 22.97 128.573 23.24C128.137 23.44 125.188 23.48 124.986 23.28C124.823 23.12 124.823 21.98 124.986 21.82C125.067 21.74 125.594 21.7 126.698 21.7C128.178 21.7 128.299 21.71 128.623 21.93ZM128.4 25.14C128.735 25.31 129.019 25.71 129.019 25.99C129.019 26.1 128.897 26.32 128.755 26.49L128.492 26.8L126.698 26.78L124.915 26.75L124.884 26.02C124.864 25.56 124.904 25.23 124.975 25.14C125.148 24.94 127.995 24.94 128.4 25.14ZM140.115 19.1L136.061 19.15L136.031 24.59C136.021 27.59 136.051 30.08 136.092 30.12C136.152 30.18 142.324 30.24 144.401 30.2C144.492 30.2 144.523 29.02 144.523 24.66C144.523 19.7 144.502 19.12 144.36 19.06C144.269 19.03 144.198 19.01 144.188 19.02C144.178 19.04 142.344 19.07 140.115 19.1ZM146.124 19.09C146.053 19.11 145.962 19.18 145.921 19.24C145.799 19.41 145.82 30.08 145.941 30.15C146.093 30.24 159.652 30.21 159.743 30.12C159.794 30.07 159.814 29.39 159.804 28.59L159.773 27.15L156.379 27.12C154.514 27.11 152.954 27.06 152.903 27.01C152.781 26.89 152.751 25.8 152.852 25.57C152.933 25.41 153.197 25.4 156.328 25.4H159.723L159.773 25.17C159.804 25.05 159.824 24.57 159.804 24.1L159.773 23.25L156.379 23.22C154.514 23.21 152.954 23.16 152.903 23.11C152.791 23 152.751 22.2 152.842 21.93L152.923 21.7L156.348 21.68L159.773 21.65L159.804 20.42C159.824 19.48 159.804 19.18 159.692 19.15C159.54 19.09 146.306 19.03 146.124 19.09Z" fill="#F5F5F5"/>
</g>
<defs>
<clipPath id="clip0_79_34033">
<rect width="91.2" height="43.2" fill="white" transform="translate(74.4 2.3999)"/>
</clipPath>
</defs>
</svg>
