<svg width="830" height="780" viewBox="0 0 830 780" fill="none" xmlns="http://www.w3.org/2000/svg">
<path fill-rule="evenodd" clip-rule="evenodd" d="M735.556 274.831C721.675 209.069 672.446 158.039 606.238 132.618C593.512 125.42 581.175 94.5342 564.072 88.8779C561.33 87.9712 565.657 95.1871 564.072 95.618C558.415 97.1551 552.077 97.3156 545.832 91.7648C534.67 81.8443 531.169 52.861 524.382 39.7616C488.591 -29.3244 399.229 -2.29315 387.257 74.0798C378.909 79.5207 367.109 84.3137 358.022 88.6982C348.665 93.213 340.435 104.148 330.792 108.058C322.189 111.546 308.012 109.075 299.343 112.116C259.469 126.103 225.697 143.752 199.22 179.512C193.641 187.054 187.352 196.326 182.275 203.945C156.101 234.076 137.921 267.848 121.177 304.081C74.3308 410.432 61.5888 528.186 50.1568 642.772C50.4168 662.821 37.1128 718.415 56.7898 728.027C55.6138 729.246 56.0398 731.695 58.2218 731.674C108.115 731.17 157.892 735.635 207.011 744.316C230.71 748.505 254.282 754.249 278.422 755.193C328.533 754.847 378.464 746.45 428.509 754.396C488.671 754.396 561.787 752.643 628.716 750.07C691.269 747.665 754.156 753.096 815.934 742.459C820.824 741.685 823.212 735.721 822.187 731.447C814.939 705.037 811.381 677.855 807.314 650.824C808.124 633.486 806.675 615.386 800.261 599.237C783.503 490.219 762.014 381.912 735.556 274.831Z" fill="#D08B5B"/>
<path fill-rule="evenodd" clip-rule="evenodd" d="M564.072 96.0181C565.657 95.5872 561.33 88.3712 564.072 89.2779C581.175 94.9343 593.512 125.82 606.238 133.018C672.446 158.439 721.675 209.469 735.556 275.231C762.014 382.312 783.503 490.619 800.261 599.637C806.675 615.786 808.124 633.886 807.314 651.224L807.952 655.493C811.766 681.114 815.32 706.827 822.187 731.847C823.212 736.121 820.824 742.085 815.934 742.859C754.858 753.375 692.698 748.187 630.849 750.391L617.958 750.875C554.024 753.225 485.462 754.796 428.509 754.796C378.464 746.85 328.533 755.247 278.422 755.593C254.282 754.649 230.71 748.905 207.011 744.716C157.892 736.035 108.115 731.57 58.2218 732.074C56.0398 732.095 55.6138 729.646 56.7898 728.427C37.1128 718.815 50.4168 663.221 50.1568 643.172L51.1901 632.851C62.384 521.531 75.7362 407.641 121.177 304.481L122.538 301.549C138.909 266.425 156.808 233.662 182.275 204.345L183.832 202.013C188.602 194.889 194.199 186.7 199.22 179.912C225.697 144.152 259.469 126.503 299.343 112.516C308.012 109.475 322.189 111.946 330.792 108.458C339.811 104.801 347.594 94.9988 356.219 90.0517L356.219 126.952L481.02 249.89L551.804 141.354L559.002 96.902C560.737 96.7932 562.433 96.4634 564.072 96.0181Z" fill="#8FA7DF"/>
<path fill-rule="evenodd" clip-rule="evenodd" d="M715.368 418.128C714.048 424.538 712.198 430.948 709.738 437.019C707.368 442.878 703.798 448.128 701.339 453.918C701.009 454.698 700.469 455.288 699.818 455.738L700.02 457.313L700.208 458.888C701.434 469.516 702.814 480.116 704.008 490.743L704.589 496.059C706.938 518.248 710.648 540.328 713.528 562.458C716.348 584.128 719.219 605.798 722.288 627.438C725.458 649.748 728.688 672.028 732.458 694.248C734.049 703.632 735.71 713.009 737.441 722.377L738.778 729.548C752.538 732.858 756.298 752.038 742.288 759.118C735.929 762.318 727.759 761.548 722.518 756.519C717.071 751.278 716.845 741.826 715.581 734.727L714.364 728.13C705.252 678.527 697.344 628.352 693.648 578.048C692.698 565.059 691.898 552.059 691.378 539.048C690.883 526.81 691.12 514.574 690.931 502.336L690.868 498.998C690.579 485.948 690.818 472.918 691.158 459.868C691.198 458.278 691.268 456.688 691.348 455.088C690.889 454.548 690.558 453.908 690.419 453.288L690.238 452.468C689.788 450.358 690.298 447.888 691.919 446.378C692.618 437.488 693.538 428.608 693.788 419.728C693.808 418.998 694.858 419.019 694.919 419.728C695.509 427.288 696.688 434.868 697.868 442.438C705.458 436.338 711.068 426.278 714.378 417.858C714.618 417.248 715.509 417.468 715.368 418.128ZM535.787 64.7073C537.047 70.4673 539.537 75.6383 542.877 80.4483C544.468 82.7483 546.277 84.8883 548.447 86.6783C550.308 88.2073 552.428 89.2073 554.407 90.5383C557.287 90.0873 560.297 91.1783 562.317 93.2973L561.998 90.1983C561.897 89.1983 563.558 88.9983 563.748 89.9673C572.497 134.089 580.476 178.239 587.383 222.68L590.41 242.306L593.259 260.73C597.988 291.432 602.563 322.121 606.008 353.047C610.598 394.318 614.457 435.698 617.277 477.137C620.107 518.868 621.848 560.627 623.088 602.438C623.397 612.978 623.728 623.508 624.047 634.047L626.183 621.447C628.315 608.843 630.406 596.228 632.197 583.568C638.627 538.258 643.768 492.627 646.277 446.928C648.578 405.108 647.808 362.458 637.168 321.717C634.487 311.467 631.207 301.377 627.248 291.547C623.407 281.988 618.168 273.127 614.037 263.708C609.237 252.748 607.797 242.408 610.268 230.608C612.428 220.328 616.218 210.658 616.897 200.078C618.168 180.438 611.777 161.417 602.748 144.228C600.367 139.698 597.857 135.228 595.237 130.797C587.308 117.408 578.367 104.507 569.088 92.1383C568.588 91.4783 569.647 90.7483 570.188 91.2883C578.647 99.6483 587.897 107.868 595.508 116.998C599.207 121.438 602.817 125.967 606.237 130.618C643.758 136.888 675.998 160.257 698.037 191.118C723.047 226.138 735.697 268.288 745.058 309.797C755.468 355.928 764.248 402.478 773.598 448.837C783.277 496.808 792.907 544.778 802.647 592.738C807.487 616.547 812.328 640.358 817.157 664.178C819.607 676.238 822.178 688.268 824.867 700.288C826.248 706.448 827.728 712.598 829.008 718.778C830.447 725.748 829.107 730.207 824.388 735.328C822.647 737.228 819.897 737.198 817.737 736.188L817.062 735.87L816.409 735.555C813.737 734.242 811.641 732.881 809.978 729.957C808.147 726.748 807.857 723.188 807.228 719.618C806.067 713.047 804.918 706.478 803.758 699.898C802.025 690.058 800.141 680.246 798.222 670.437L788.599 621.414C786.032 608.343 783.462 595.273 780.877 582.208C771.647 535.488 762.407 488.778 753.168 442.068C744.297 397.217 736.447 352.058 726.348 307.467L725.774 304.955L725.19 302.446C716.16 264.006 703.542 226.822 680.647 194.248C663.027 169.198 638.558 146.828 609.737 135.507C611.768 138.428 613.718 141.408 615.578 144.448C627.258 163.528 635.787 186.178 633.787 208.898C632.808 219.998 628.588 230.908 628.987 242.098C629.357 252.038 635.508 260.768 639.758 269.417C649.407 289.018 656.388 309.848 660.888 331.217C669.918 374.127 669.888 418.278 666.777 461.837C663.397 509.188 656.978 556.528 649.668 603.417C645.918 627.467 640.928 651.318 637.107 675.328C635.218 687.167 632.647 698.978 630.397 710.758L629.325 716.386C628.725 719.51 628.102 722.623 627.382 725.703L626.938 727.547V727.877C626.918 730.148 626.297 732.028 625.297 733.528C623.928 737.917 622.228 742.198 619.968 746.308C618.808 748.408 617.127 749.587 615.297 750.018C613.457 754.228 609.287 757.467 604.308 757.448L538.817 757.198C500.777 757.047 462.737 756.797 424.697 756.587C415.098 756.538 405.508 756.358 395.918 756.108C386.928 755.858 378.308 754.778 369.418 753.658C359.377 752.398 353.938 745.288 355.438 735.258C355.768 733.047 356.127 730.848 356.468 728.648C354.468 729.308 352.088 728.998 350.478 727.428L348.969 725.951C346.877 723.881 345.005 721.849 343.678 719.087C342.308 716.248 341.197 713.248 339.987 710.348C337.377 704.108 334.838 697.848 332.367 691.558C327.418 678.978 322.468 666.348 317.867 653.637C308.758 628.467 300.697 602.917 293.688 577.078C281.188 530.978 272.147 483.988 266.447 436.578L265.085 425.279L264.688 421.941C262.527 403.565 260.708 384.904 261.567 366.568C262.098 355.087 263.877 343.518 268.168 332.797C272.127 322.908 278.237 314.448 284.047 305.608L284.712 304.588L285.381 303.543C290.462 295.513 294.505 287.119 294.707 277.368C294.913 267.473 292.03 257.843 288.807 248.579L288.003 246.295L287.464 244.783C280.607 225.637 272.804 206.762 275.377 185.928C279.178 155.248 297.777 130.518 321.178 111.448C300.367 115.568 279.768 123.707 261.588 134.028C240.117 146.228 220.787 162.328 204.117 180.498C172.617 214.837 150.127 256.038 131.718 298.578C112.447 343.098 98.1573 389.748 87.3883 437.008C76.5583 484.538 69.3083 532.828 64.3573 581.308C61.8883 605.438 59.9473 629.627 58.3383 653.828C57.5183 666.228 56.8983 678.648 55.9383 691.028C54.9783 703.398 54.5473 715.957 51.5273 727.998C50.1173 733.608 40.6073 734.178 39.5883 727.998C37.3269 714.196 37.9589 699.924 38.59 685.948L38.6473 684.678C39.2683 670.758 40.0783 656.848 41.0373 642.938C42.9983 614.508 45.6173 586.118 49.0373 557.818C61.0273 458.478 83.1383 359.658 126.508 268.978C146.928 226.268 173.138 184.768 209.598 153.928C226.957 139.257 246.527 127.547 267.617 119.068C286.478 111.478 305.638 107.888 325.678 107.898C335.728 100.198 346.518 93.4883 357.297 87.7573C357.947 87.4083 358.627 88.2483 358.088 88.7883C357.808 89.0583 357.537 89.3373 357.258 89.5983C358.478 89.6783 359.737 90.2483 360.867 91.4383C364.828 95.5873 368.168 100.778 371.157 106.167C375.707 111.848 380.047 117.717 384.588 123.337C391.857 132.337 399.297 141.207 406.828 150.007C419.476 164.797 432.535 179.306 446.153 193.232L448.428 195.547C455.487 202.698 462.638 211.257 470.987 216.917L471.433 217.214C474.956 219.509 477.453 219.925 480.457 216.498C483.188 213.378 485.461 209.758 487.798 206.318L488.338 205.528C500.268 188.198 511.328 170.228 521.338 151.728C525.901 143.309 530.241 134.768 534.36 126.132L535.588 123.538C537.828 118.778 540.258 114.108 542.107 109.207C542.537 108.058 542.957 106.908 543.367 105.768C537.067 101.638 532.188 92.6983 530.418 85.6983C528.578 78.4283 529.508 70.9673 532.787 64.3183C533.407 63.0683 535.487 63.3773 535.787 64.7073ZM224.999 360.137C224.127 387.778 223.598 415.448 222.297 443.068L221.848 452.497C223.877 454.758 225.067 457.367 224.117 460.948C223.748 462.318 222.657 463.558 221.297 464.018L220.873 472.785C218.944 512.23 216.681 551.593 212.547 590.938C207.377 640.178 201.397 689.337 195.428 738.488C194.578 745.448 189.737 750.967 182.207 749.948C174.588 748.917 171.498 742.287 172.498 735.377C176.428 708.268 180.207 681.137 183.518 653.938L187.288 622.95C192.016 584.213 196.854 545.481 202.428 506.867C204.758 490.728 207.178 474.598 209.607 458.467L208.758 457.367C205.287 452.858 201.697 448.448 198.147 444.008C191.328 435.448 184.598 426.957 178.348 417.997C178.037 417.547 178.668 416.887 179.117 417.228C187.877 423.698 196.168 430.617 204.508 437.648L211.808 443.827C216.008 415.957 220.168 388.077 223.877 360.137C223.968 359.438 225.018 359.387 224.999 360.137ZM351.008 95.6183C345.737 100.587 340.348 105.448 335.037 110.388L333.092 112.206L331.156 114.033C321.822 122.884 312.88 132.098 305.428 142.678C291.748 162.108 283.598 185.797 289.287 209.518C294.008 229.167 304.838 246.978 307.748 267.118C309.207 277.208 308.498 287.348 304.697 296.877C300.817 306.598 294.617 314.928 289.047 323.698C276.947 342.758 275.297 363.678 276.498 385.758C277.758 408.818 280.407 431.887 283.678 454.738C290.297 501.038 300.277 546.858 313.487 591.728C320.098 614.198 327.907 636.188 335.678 658.268C339.547 669.258 344.058 679.988 348.707 690.667C351.157 696.288 353.668 701.877 356.218 707.457C355.277 699.578 355.277 691.488 354.817 683.658C354.157 672.438 353.317 661.238 352.547 650.028C350.978 627.278 349.578 604.508 348.328 581.738C343.898 500.538 340.638 419.268 340.877 337.938C340.998 297.268 341.828 256.598 343.578 215.967C344.399 196.834 345.987 177.719 347.423 158.612L347.728 154.518C348.998 137.368 350.518 120.178 353.127 103.178C352.355 101.435 351.684 99.6699 351.187 97.8594L351.008 97.1783L351.138 97.1983C351.018 96.6673 350.978 96.1383 351.008 95.6183ZM396.589 25.7381C396.698 25.2681 397.368 25.3081 397.488 25.7381C400.458 35.7381 399.408 46.7381 396.849 56.7981C395.469 62.2481 393.509 67.5381 391.139 72.6381L390.309 74.4228C388.279 78.7662 385.992 83.2414 382.038 85.9481C380.389 87.0781 377.438 87.1481 375.788 85.9481L374.946 85.3095C374.808 85.2014 374.671 85.0914 374.538 84.9781C372.999 83.6881 372.238 80.8381 372.948 78.9581C374.778 74.1081 378.929 70.5481 381.798 66.2281C384.339 62.3881 386.589 58.3381 388.458 54.1281C392.488 45.0181 394.298 35.3481 396.589 25.7381Z" fill="black"/>
</svg>
