<svg width="507" height="567" viewBox="0 0 507 567" fill="none" xmlns="http://www.w3.org/2000/svg">
<path fill-rule="evenodd" clip-rule="evenodd" d="M228.396 82.672C379.965 75.2183 448.362 181.936 452.786 229.602C455.857 262.69 436.308 300.827 436.308 330.393C436.308 345.485 454.786 377.886 446.184 399.882C427.037 448.841 386.497 503.176 334.837 503.176C283.177 503.176 215.944 517.463 158.862 435.731C153.506 428.062 85.7622 384.476 79.1808 343.06C62.7872 239.895 120.244 87.9906 228.396 82.672Z" fill="#D08B5B"/>
<path fill-rule="evenodd" clip-rule="evenodd" d="M221.25 16.258C226.67 10.058 235.82 7.57798 243.95 8.05798C255.76 8.75798 266.031 16.048 277.781 16.588C290.1 17.158 301.99 12.888 314.34 14.868C321.91 16.088 329.41 19.598 334.26 25.518C351.06 20.708 369.3 27.078 380 40.988C393.2 38.938 407.56 47.679 411.6 60.398C428.37 60.938 444.2 74.408 446.07 91.288C452.771 93.058 458.59 97.679 462.16 103.788C466.31 110.868 467 118.988 466.25 126.968C474.14 130.998 478.15 139.658 479.2 148.818C486.41 154.198 489.54 163.868 488.07 172.998C493.59 176.108 496.441 183.348 496.41 189.808C496.38 195.838 494.781 201.179 497.031 206.998C499.035 212.181 499.755 216.5 498.652 221.929L498.54 222.458C498.345 223.343 498.181 224.192 498.034 225.029C499.527 226.339 500.79 227.981 501.738 229.891C505.196 236.871 504.681 244.832 502.044 251.911C503.199 256.419 503.052 261.181 501.345 265.514C504.542 270.119 506.223 275.767 505.729 281.627C505.175 288.188 502.179 294.063 497.636 298.407C498.846 307.369 495.202 317.052 488.613 323.362C489.548 328.727 488.741 334.35 485.806 339.436C483.714 343.061 480.898 345.761 477.649 347.643C477.756 350.636 477.351 353.697 476.355 356.764C474.972 361.02 472.63 364.941 469.548 368.099C471.387 379.857 464.347 392.904 451.956 396.203C450.915 396.48 449.922 396.607 448.971 396.627C447.74 407.936 445.052 419.088 440.89 429.679C430.31 456.648 411.07 480.228 385.98 494.938C373.57 502.208 359.63 507.188 345.4 509.268C335.16 510.768 325.31 510.398 315.031 509.378C302.13 508.088 289.17 506.158 276.63 502.838L274.613 502.302C269.415 500.909 263.934 499.302 259.43 496.498C254.39 493.358 251.771 488.518 250.611 482.818C249.964 479.646 251.973 476.233 255.446 476.168L255.67 476.168C256.43 476.184 257.184 476.155 257.947 476.107L258.521 476.068H258.55C258.59 476.058 258.611 476.058 258.65 476.058C258.99 476.008 259.32 475.908 259.65 475.858C263.471 475.215 266.812 475.853 270.4 477.046L270.85 477.198C276.89 479.278 282.88 481.208 289.12 482.638C295.57 484.108 302.1 485.278 308.65 486.198L309.3 486.278L309.5 486.308L309.6 486.318C309.62 486.318 309.64 486.318 309.66 486.328L311.59 486.568C313.111 486.748 314.63 486.908 316.15 487.068C318.95 487.348 321.75 487.568 324.55 487.728C372.88 490.448 413.47 452.398 425.72 406.778C430.16 390.268 430.45 373.798 429.14 357.318C428.72 356.118 428.47 354.788 428.48 353.328C428.48 352.568 428.521 351.818 428.57 351.058C426.941 335.118 424.111 319.168 422.34 303.168C420.271 284.478 419.12 265.679 419.54 246.868C419.75 237.578 420.74 228.378 422.04 219.179L422.51 215.874C416.635 214.727 411.173 211.941 406.824 207.908C397.386 213.358 385.171 213.841 375.855 208.086C365.415 214.633 350.829 215.227 340.316 208.826C333.962 213.362 325.956 215.319 318.097 213.597C314.562 212.823 311.047 211.148 308.037 208.829C305.888 209.208 303.711 209.355 301.546 209.242L301.099 209.492C296.109 212.122 290.581 213.853 284.892 213.66C280.68 213.518 276.341 212.687 272.324 211.115C268.033 213.705 263.337 215.473 258.313 216.107C250.976 217.032 243.058 215.409 236.956 211.247C225.805 217.599 212.089 218.577 200.053 214.309C197.588 218.484 194.177 222.084 190.183 224.859C190.898 227.421 191.126 230.153 190.88 232.78C190.476 237.104 189.392 240.981 187.619 244.463C189.488 248.351 190.05 253.125 189.004 257.917C187.513 264.751 183.537 270.696 178.389 275.326C177.935 286.232 171.954 296.458 162.22 302.139C161.727 302.426 161.237 302.66 160.748 302.871C160.318 303.459 159.804 303.976 159.217 304.412C153.027 310.131 143.231 309.676 135.472 306.445C135.322 306.452 135.173 306.465 135.021 306.468C132.25 306.538 130.361 305.458 129.24 303.868C128.111 303.929 126.99 304.048 125.861 304.258C121.74 305.028 117.22 306.508 113.49 308.429C103.81 313.408 99.33 322.208 97.99 332.788C96.531 344.328 99.85 356.088 108.781 363.898C113.12 367.698 118.67 370.078 124.31 371.078C130.54 372.188 137.2 369.458 141.8 374.808C142.72 375.868 143.35 377.348 142.85 378.778C141.29 383.238 138.72 384.948 134.7 385.568C140.51 392.458 146.47 399.118 153.07 405.308C160.21 412.018 167.59 418.518 174.031 425.918C180.84 433.748 186.99 442.048 191.26 451.548C193.7 457.008 195.66 462.638 197.771 468.228L198.148 469.202C200.502 475.141 203.632 480.866 200.01 487.068C198.57 489.508 195.31 491.868 192.31 491.478C183.861 490.398 181.031 484.688 178.43 477.248C176.47 471.628 174.97 465.848 172.861 460.278C172.466 459.247 172.036 458.226 171.585 457.211C166.713 458.569 161.356 457.491 157.008 454.713C152.362 456.772 147.215 457.799 142.244 457.712C135.588 457.595 129.507 455.746 124.279 452.411C123.863 452.301 123.445 452.195 123.03 452.076C115.077 455.122 105.763 454.578 98.562 449.641C93.899 446.444 90.711 442.177 88.899 437.426C82.874 437.311 76.914 435.175 72.597 430.901C68.633 426.977 66.316 421.914 65.628 416.653C60.442 415.626 55.58 413.119 51.767 408.896C48.583 405.369 46.648 400.877 45.994 396.213C39.678 394.411 33.982 390.287 30.871 384.537C27.976 379.184 27.558 373.377 28.974 368.095L28.607 367.567C22.101 364.162 17.136 358.588 16.626 350.626C16.482 348.359 16.726 346.091 17.341 343.945C17.119 341.546 17.261 339.148 17.89 336.828C9.13998 328.318 5.96998 314.648 10.72 303.348C2.16998 294.148 -0.0900211 279.598 6.17998 268.679C1.87998 263.478 -0.330021 256.848 0.039979 249.768C0.499979 240.929 4.54998 233.208 9.39998 226.058C5.79998 222.078 3.87998 216.528 4.02098 211.168C4.21998 203.398 8.34998 196.708 13.521 191.168C9.00998 177.488 14.05 162.648 25.12 153.988C22.88 150.298 22.05 145.728 22.781 141.098C24.06 133.008 30.13 127.498 36.68 123.138C35.31 118.679 35.67 113.868 37.85 109.258C40.76 103.108 46.25 99.208 51.98 95.908C53.46 82.268 68.7 70.618 81.48 77.658C78.31 67.508 87.441 56.548 97.941 55.388C103.08 39.808 120.81 29.988 136.75 33.858C144.9 22.718 160.07 18.429 172.95 23.208C187.111 12.358 204.68 10.748 221.25 16.258ZM120.38 322.168C130.33 321.628 137.79 329.748 143.031 337.178C147.95 344.148 135.33 351.508 131.65 343.828C130.33 341.089 128.83 338.188 126.82 335.788C126.482 336.261 126.184 336.75 125.888 337.252L125.59 337.758C125.37 338.128 125.14 338.508 124.95 338.898C124.97 338.968 124.67 339.888 124.66 339.928C123.84 342.418 122.05 344.018 119.611 344.878C116.46 345.978 113.48 343.608 112.47 340.828C110.861 336.388 114.6 332.518 118.49 330.758C114.67 330.138 110.91 331.438 108.15 334.378C107.771 334.788 107.13 334.458 107.111 333.948C106.79 326.978 114.08 322.508 120.38 322.168Z" fill="black"/>
</svg>
